<?xml version="1.0" encoding="utf-8"?>
<!-- Generator: Adobe Illustrator 22.0.0, SVG Export Plug-In . SVG Version: 6.00 Build 0)  -->
<svg version="1.1" id="Layer_1" xmlns="http://www.w3.org/2000/svg" xmlns:xlink="http://www.w3.org/1999/xlink" x="0px" y="0px"
	 viewBox="0 0 372 72" style="enable-background:new 0 0 372 72;" xml:space="preserve">
<style type="text/css">
	.st0{fill:#FF2727;}
</style>
<g>
	<path class="st0" d="M0.8,69.9V0.6h29.1v9.8H11.7v19.7h15.7v9.8H11.7v20.2h18.2v9.8H0.8z"/>
	<path class="st0" d="M68,66.3c-3.1,2.8-6.8,4.4-12,4.4c-6.6,0-10.5-2.5-13.4-5.8C37.4,59,37.5,49,37.5,35.4s-0.1-23.9,5.1-29.7
		c2.9-3.3,6.8-5.8,13.4-5.8c5.3,0,9,1.6,12.1,4.5c3.4,3.2,5.4,8.5,5.6,14.6h-11c-0.1-2.5-0.5-5-1.7-6.7c-1-1.6-2.4-2.5-5.1-2.5
		c-2.6,0-4.2,1.1-5.2,2.6c-2,3.3-2.4,10.3-2.4,23s0.4,19.7,2.4,23c1,1.6,2.5,2.6,5.2,2.6c2.6,0,4.2-1,5.2-2.5
		c1.2-1.8,1.6-4.3,1.7-6.8h10.9C73.5,57.8,71.5,63.1,68,66.3z"/>
	<path class="st0" d="M133.2,69.9h-11.4l-9.9-52.7L102,69.9H90.6L77.4,0.6h12l6.8,52.6l9.5-52.6h12.1l9.6,52.6l6.7-52.6h12
		L133.2,69.9z"/>
	<path class="st0" d="M182.5,65.7c-3.3,3.4-7.7,5.1-12.9,5.1s-9.6-1.7-13-5.1c-3-3.1-4.8-7.5-4.8-12.8V0.6h10.9v52.9
		c0,5,3.1,7.4,6.8,7.4s6.7-2.4,6.7-7.4V0.6h10.9v52.3C187.2,58.2,185.5,62.5,182.5,65.7z"/>
	<path class="st0" d="M228.3,65.7c-3.3,3.4-7.7,5.1-12.9,5.1s-9.6-1.7-13-5.1c-3-3.1-4.8-7.5-4.8-12.8V0.6h10.9v52.9
		c0,5,3.1,7.4,6.8,7.4s6.7-2.4,6.7-7.4V0.6h10.9v52.3C233.1,58.2,231.4,62.5,228.3,65.7z"/>
	<path class="st0" d="M274.2,65.7c-3.3,3.4-7.7,5.1-12.9,5.1c-5.2,0-9.6-1.7-13-5.1c-3-3.1-4.8-7.5-4.8-12.8V0.6h10.9v52.9
		c0,5,3.1,7.4,6.8,7.4s6.7-2.4,6.7-7.4V0.6H279v52.3C279,58.2,277.3,62.5,274.2,65.7z"/>
	<path class="st0" d="M320.1,65.7c-3.3,3.4-7.7,5.1-12.9,5.1c-5.2,0-9.6-1.7-13-5.1c-3-3.1-4.8-7.5-4.8-12.8V0.6h10.9v52.9
		c0,5,3.1,7.4,6.8,7.4s6.7-2.4,6.7-7.4V0.6h10.9v52.3C324.9,58.2,323.1,62.5,320.1,65.7z"/>
	<path class="st0" d="M366,65.7c-3.3,3.4-7.7,5.1-12.9,5.1c-5.2,0-9.6-1.7-13-5.1c-3-3.1-4.8-7.5-4.8-12.8V0.6h10.9v52.9
		c0,5,3.1,7.4,6.8,7.4s6.7-2.4,6.7-7.4V0.6h10.9v52.3C370.8,58.2,369,62.5,366,65.7z"/>
</g>
</svg>
